<svg viewBox="9 12 182 180" xmlns="http://www.w3.org/2000/svg">
  <defs>
    <!-- より滑らかな球体のグラデーション -->
    <radialGradient id="refinedSphereGradient" cx="35%" cy="35%" r="65%" fx="25%" fy="25%">
      <stop offset="0%" style="stop-color:#FFF0F5;stop-opacity:1"/>
      <stop offset="30%" style="stop-color:#FFDEE9;stop-opacity:1"/>
      <stop offset="50%" style="stop-color:#FFC8DB;stop-opacity:1"/>
      <stop offset="70%" style="stop-color:#FFB6D5;stop-opacity:1"/>
      <stop offset="85%" style="stop-color:#FFA6C8;stop-opacity:0.98"/>
      <stop offset="100%" style="stop-color:#FF9BC1;stop-opacity:0.95"/>
    </radialGradient>

    <!-- 改良されたハイライト効果 -->
    <linearGradient id="refinedHighlight" x1="15%" y1="15%" x2="75%" y2="75%">
      <stop offset="0%" style="stop-color:#FFFFFF;stop-opacity:0.45"/>
      <stop offset="45%" style="stop-color:#FFFFFF;stop-opacity:0.2"/>
      <stop offset="100%" style="stop-color:#FFFFFF;stop-opacity:0"/>
    </linearGradient>

    <!-- 涙滴のグラデーション -->
    <linearGradient id="refinedCloudGradient" x1="0%" y1="0%" x2="100%" y2="100%">
      <stop offset="0%" style="stop-color:#BFFFFF;stop-opacity:1"/>
      <stop offset="35%" style="stop-color:#7FDFFF;stop-opacity:1"/>
      <stop offset="65%" style="stop-color:#50CFFF;stop-opacity:1"/>
      <stop offset="100%" style="stop-color:#00BFFF;stop-opacity:0.95"/>
    </linearGradient>

    <!-- 改良された光彩効果 -->
    <filter id="refinedGlow" x="-50%" y="-50%" width="200%" height="200%">
      <feGaussianBlur in="SourceAlpha" stdDeviation="3.2"/>
      <feOffset dx="1.8" dy="1.8" result="offsetblur"/>
      <feFlood flood-color="#FFB6D5" flood-opacity="0.48"/>
      <feComposite in2="offsetblur" operator="in"/>
      <feMerge>
        <feMergeNode/>
        <feMergeNode in="SourceGraphic"/>
      </feMerge>
    </filter>

    <!-- より深みのある鍵穴のグラデーション -->
    <linearGradient id="refinedHoleGradient" x1="0%" y1="0%" x2="100%" y2="100%">
      <stop offset="0%" style="stop-color:#9B4B76;stop-opacity:0.75"/>
      <stop offset="45%" style="stop-color:#8B3A62;stop-opacity:0.8"/>
      <stop offset="100%" style="stop-color:#662D4A;stop-opacity:0.85"/>
    </linearGradient>

    <!-- 改良された縁のぼかし効果 -->
    <filter id="refinedEdgeBlur">
      <feGaussianBlur in="SourceGraphic" stdDeviation="0.6"/>
      <feComponentTransfer>
        <feFuncA type="linear" slope="1.2"/>
      </feComponentTransfer>
    </filter>

    <!-- 吹き出しの光沢効果 -->
    <linearGradient id="bubbleShine" x1="0%" y1="0%" x2="100%" y2="100%">
      <stop offset="0%" style="stop-color:#FFFFFF;stop-opacity:0.15"/>
      <stop offset="100%" style="stop-color:#FFFFFF;stop-opacity:0"/>
    </linearGradient>
  </defs>

  <!-- ハート型のベース -->
  <path d="M 100,175
         C 145,145 180,115 180,65
         C 180,35 160,25 135,25
         C 115,25 105,40 100,50
         C 95,40 85,25 65,25
         C 40,25 20,35 20,65
         C 20,115 55,145 100,175 Z" 
      fill="url(#refinedSphereGradient)" 
      filter="url(#refinedGlow)"/>
  
  <!-- 改良されたハイライト（ハート型に合わせて） -->
  <path d="M 100,175
         C 145,145 180,115 180,65
         C 180,35 160,25 135,25
         C 115,25 105,40 100,50
         C 95,40 85,25 65,25
         C 40,25 20,35 20,65
         C 20,115 55,145 100,175 Z" 
      fill="url(#refinedHighlight)" 
      style="mix-blend-mode: soft-light"/>

  <!-- ティアドロップ (涙型) - 小さくしてハートのくぼみの点に合わせる -->
  <path d="M 100,50
           C 90,70 75,90 75,105
           C 75,125 85,135 100,135
           C 115,135 125,125 125,105
           C 125,90 110,70 100,50" 
        fill="url(#refinedCloudGradient)" 
        stroke="#67C1E8" 
        stroke-width="3.5" 
        stroke-opacity="0.38"/>
  
  <!-- ティアドロップの光沢 -->
  <path d="M 100,50
           C 90,70 75,90 75,105
           C 75,125 85,135 100,135
           C 115,135 125,125 125,105
           C 125,90 110,70 100,50" 
        fill="url(#bubbleShine)" 
        style="mix-blend-mode: overlay"/>



  <!-- 鍵穴の縁 - 台形の下辺を涙の丸みに合わせる -->
  <path d="M 100,85
           m -15,0
           a 15,15 0 1 0 30,0
           a 15,15 0 1 0 -30,0
           M 97,100
           q -0.2,2 -0.5,5
           l -1.5,25
           C 94,133 97,135 100,135
           C 103,135 106,133 105,130
           l -1.5,-25
           q -0.3,-3 -0.5,-5
           Z" 
        fill="none"
        stroke="#FFC8DB"
        stroke-width="2.2"
        stroke-opacity="0.42"
        filter="url(#refinedEdgeBlur)"/>

  <!-- 鍵穴の内部 - 台形の下辺を涙の丸みに合わせる -->
  <path d="M 100,85
           m -15,0
           a 15,15 0 1 0 30,0
           a 15,15 0 1 0 -30,0
           M 97,100
           q -0.2,2 -0.5,5
           l -1.5,25
           C 94,133 97,135 100,135
           C 103,135 106,133 105,130
           l -1.5,-25
           q -0.3,-3 -0.5,-5
           Z" 
        fill="url(#refinedHoleGradient)"
        style="mix-blend-mode: multiply"/>
</svg>
